<?xml version="1.0" encoding="UTF-8"?>
<svg xmlns="http://www.w3.org/2000/svg" xmlns:xlink="http://www.w3.org/1999/xlink" width="48pt" height="48pt" viewBox="0 0 48 48" version="1.1">
<g id="surface735465">
<path style=" stroke:none;fill-rule:nonzero;fill:rgb(18.039216%,80%,44.313725%);fill-opacity:1;" d="M 23.996094 4.5 C 21.335938 4.5 8.304688 11.976562 6.988281 14.257812 C 5.671875 16.539062 5.671875 31.472656 6.988281 33.746094 C 8.308594 36.027344 21.34375 43.5 23.996094 43.5 C 26.644531 43.5 39.679688 36.03125 41.003906 33.753906 C 42.335938 31.46875 42.335938 16.519531 41.003906 14.246094 C 39.667969 11.96875 26.632812 4.5 23.996094 4.5 Z M 23.996094 7.519531 C 26.539062 8.046875 36.625 13.824219 38.394531 15.765625 C 39.203125 18.226562 39.203125 29.765625 38.394531 32.230469 C 36.636719 34.167969 26.542969 39.953125 23.996094 40.480469 C 21.445312 39.957031 11.359375 34.175781 9.601562 32.234375 C 8.796875 29.761719 8.796875 18.234375 9.601562 15.765625 C 11.355469 13.824219 21.445312 8.042969 23.996094 7.519531 Z M 19.5 13.5 L 16.5 16.5 L 18 16.5 L 18 31.5 L 21 31.5 L 21 25.5 L 27 25.5 L 27 31.5 L 25.5 31.5 L 28.5 34.5 L 31.5 31.5 L 30 31.5 L 30 18 L 27 18 L 27 22.5 L 21 22.5 L 21 16.5 L 22.5 16.5 Z M 19.5 13.5 "/>
</g>
</svg>
